<svg width="34" height="28" viewBox="0 0 34 28" fill="none" xmlns="http://www.w3.org/2000/svg">
<path d="M-7.62939e-06 27.2638C-7.62939e-06 25.3438 -7.62939e-06 23.4878 -7.62939e-06 21.6958C0.0639923 19.8398 0.127992 18.1438 0.191992 16.6078C0.383992 11.1038 1.24799 6.97583 2.78399 4.22383C4.38399 1.40783 7.39199 -0.000169754 11.808 -0.000169754L12.96 4.89583C10.464 4.95983 8.86399 5.79183 8.15999 7.39183C7.45599 8.99183 7.10399 11.0398 7.10399 13.5358H13.824V27.2638H-7.62939e-06ZM19.68 27.2638C19.68 25.3438 19.68 23.4878 19.68 21.6958C19.744 19.8398 19.808 18.1438 19.872 16.6078C20.064 11.1038 20.928 6.97583 22.464 4.22383C24.064 1.40783 27.072 -0.000169754 31.488 -0.000169754L32.64 4.89583C30.144 4.95983 28.544 5.79183 27.84 7.39183C27.136 8.99183 26.784 11.0398 26.784 13.5358H33.504V27.2638H19.68Z" fill="#F7654A"/>
</svg>
